<svg xmlns="http://www.w3.org/2000/svg" width="31.893" height="32" viewBox="0 0 31.893 32">
  <g id="course_icon_pc" transform="translate(-0.859)">
    <path id="パス_13" data-name="パス 13" d="M265.373,0V9.128l10.4-4.563Z" transform="translate(-247.982)" fill="#cea754"/>
    <path id="パス_14" data-name="パス 14" d="M31.37,225.658a13.636,13.636,0,0,0-5.842-4.09,22.249,22.249,0,0,0-4.422-1.22v2.082a18.342,18.342,0,0,1,5.735,2.044,9.79,9.79,0,0,1,2.9,2.425,4.178,4.178,0,0,1,.964,2.517,3.824,3.824,0,0,1-.945,2.4,11.146,11.146,0,0,1-4.952,3.126,24.225,24.225,0,0,1-8,1.281,22.21,22.21,0,0,1-10.073-2.181,9.112,9.112,0,0,1-2.877-2.226,3.821,3.821,0,0,1-.945-2.4,4.18,4.18,0,0,1,.963-2.517,11.662,11.662,0,0,1,4.97-3.426,21.212,21.212,0,0,1,6.52-1.4V220.03A21.886,21.886,0,0,0,5.741,222.7a11.8,11.8,0,0,0-3.5,2.959,6.217,6.217,0,0,0-1.383,3.759,5.866,5.866,0,0,0,1.4,3.69,13.086,13.086,0,0,0,5.862,3.771,26.222,26.222,0,0,0,8.685,1.4,24.209,24.209,0,0,0,11.027-2.416,11.121,11.121,0,0,0,3.52-2.756,5.865,5.865,0,0,0,1.4-3.69A6.219,6.219,0,0,0,31.37,225.658Z" transform="translate(0 -206.278)" fill="#cea754"/>
    <path id="パス_15" data-name="パス 15" d="M244.625,165.852c1.261,0,2.283-.562,2.283-1.256,0-.53-.6-.98-1.44-1.165V152.189l-1.687.741v10.5c-.843.184-1.439.634-1.439,1.164C242.342,165.29,243.364,165.852,244.625,165.852Z" transform="translate(-226.39 -142.677)" fill="#cea754"/>
  </g>
</svg>
