<svg xmlns="http://www.w3.org/2000/svg" width="29.899" height="30" viewBox="0 0 29.899 30"><g transform="translate(-0.859)"><path d="M265.373,0V8.558l9.748-4.278Z" transform="translate(-249.015)" fill="#fff"/><path d="M29.463,225.306a12.783,12.783,0,0,0-5.477-3.834,20.858,20.858,0,0,0-4.145-1.143v1.952a17.2,17.2,0,0,1,5.377,1.917,9.178,9.178,0,0,1,2.715,2.274,3.917,3.917,0,0,1,.9,2.36,3.585,3.585,0,0,1-.886,2.253,10.449,10.449,0,0,1-4.642,2.93,22.711,22.711,0,0,1-7.5,1.2,20.821,20.821,0,0,1-9.443-2.045,8.543,8.543,0,0,1-2.7-2.087,3.582,3.582,0,0,1-.886-2.253,3.919,3.919,0,0,1,.9-2.36,10.933,10.933,0,0,1,4.659-3.212,19.886,19.886,0,0,1,6.112-1.315V220.03a20.519,20.519,0,0,0-9.02,2.5,11.063,11.063,0,0,0-3.281,2.774,5.828,5.828,0,0,0-1.3,3.524,5.5,5.5,0,0,0,1.312,3.459,12.268,12.268,0,0,0,5.5,3.535,24.583,24.583,0,0,0,8.142,1.313,22.7,22.7,0,0,0,10.338-2.265,10.425,10.425,0,0,0,3.3-2.583,5.5,5.5,0,0,0,1.312-3.459A5.83,5.83,0,0,0,29.463,225.306Z" transform="translate(0 -207.138)" fill="#fff"/><path d="M244.482,165c1.182,0,2.14-.527,2.14-1.178,0-.5-.56-.919-1.35-1.092V152.189l-1.581.694v9.845c-.79.173-1.349.595-1.349,1.091C242.342,164.471,243.3,165,244.482,165Z" transform="translate(-227.334 -143.272)" fill="#fff"/></g></svg>