<svg xmlns="http://www.w3.org/2000/svg" width="190" height="190" viewBox="0 0 190 190"><g transform="translate(-29)"><g transform="translate(28.941)"><g transform="translate(0.059)"><path d="M190,95A95,95,0,1,1,95,0a95,95,0,0,1,95,95" fill="#cc445a"/><path d="M96.209,7.5a88.712,88.712,0,0,1,62.729,151.441A88.712,88.712,0,1,1,33.481,33.481,88.131,88.131,0,0,1,96.209,7.5m0-1.5a90.209,90.209,0,1,0,90.209,90.209A90.21,90.21,0,0,0,96.209,6" transform="translate(-1.209 -1.209)" fill="rgba(206,167,84,0.4)"/><path d="M180.275,31.482H125.187a2.8,2.8,0,0,0-1.745.6c-3.85,3.087-1.448,5.588-.017,6.64a2.787,2.787,0,0,0,1.654.537h34.583a2.766,2.766,0,0,1,2.03.862,2.484,2.484,0,0,1,.274,3.535,2.733,2.733,0,0,1-2.161,1.011H107.877a2.741,2.741,0,0,0-2.321,1.222,4.52,4.52,0,0,0-.085,4.933,2.79,2.79,0,0,0,2.423,1.382h72.525a2.742,2.742,0,0,1,1.677.552c3.223,2.485,1.44,5.048.152,6.312a2.81,2.81,0,0,1-1.974.807H132.91a2.787,2.787,0,0,0-2.464,1.453c-.018.034-.035.067-.052.1a2.8,2.8,0,0,0,2.548,4H203.9c5.644,0,4.846.8,2.43-4.229a110.541,110.541,0,0,0-24.255-29.073,2.824,2.824,0,0,0-1.8-.645" transform="translate(-33.122 -6.346)" fill="rgba(206,167,84,0.4)"/><path d="M37.345,202.52H98.021a2.8,2.8,0,0,0,1.745-.6c3.85-3.087,1.448-5.588.017-6.64a2.787,2.787,0,0,0-1.654-.537H63.546a2.766,2.766,0,0,1-2.03-.862,2.484,2.484,0,0,1-.274-3.535,2.733,2.733,0,0,1,2.16-1.011h51.929a2.741,2.741,0,0,0,2.321-1.222,4.52,4.52,0,0,0,.085-4.933,2.79,2.79,0,0,0-2.423-1.382H42.79a2.742,2.742,0,0,1-1.677-.552c-3.223-2.486-1.44-5.048-.152-6.312a2.81,2.81,0,0,1,1.975-.807H90.3a2.787,2.787,0,0,0,2.464-1.453c.018-.034.035-.067.052-.1a2.8,2.8,0,0,0-2.548-4H19.3c-5.912,0-4.846-.8-2.43,4.229,4.288,10.74,17.35,27.4,18.574,28.956a.685.685,0,0,0,.229.19,4.645,4.645,0,0,0,1.666.572" transform="translate(-3.013 -43.582)" fill="rgba(206,167,84,0.4)"/><path d="M64.5,23.141A16.131,16.131,0,0,0,48.242,12.022a16.129,16.129,0,0,0-31.195,0A16.129,16.129,0,0,0,7.408,41.691,16.128,16.128,0,0,0,32.644,60.025,16.128,16.128,0,0,0,57.881,41.691,16.132,16.132,0,0,0,64.5,23.141m-8.3,15.921-2.151,1.381.928,2.381a13.005,13.005,0,0,1-12.1,17.716h0a13.047,13.047,0,0,1-8.244-2.932l-1.978-1.62-1.978,1.62a13.047,13.047,0,0,1-8.244,2.932,13,13,0,0,1-12.1-17.716l.928-2.381L9.095,39.063a13.007,13.007,0,0,1,7.031-23.944c.246,0,.5.008.741.022l2.553.147.648-2.473a13.006,13.006,0,0,1,25.153,0l.649,2.473,2.552-.147c.246-.014.5-.022.742-.022a13.007,13.007,0,0,1,7.03,23.944" transform="matrix(0.951, -0.309, 0.309, 0.951, 11.933, 51.409)" fill="rgba(206,167,84,0.4)"/><path d="M23.6,14.7a1.8,1.8,0,0,0-1.851.459L15,12.969l6.744-2.191a1.805,1.805,0,1,0-.492-1.517L14.51,11.453l4.168-5.737a1.806,1.806,0,1,0-1.29-.937l-4.168,5.737V3.424a1.806,1.806,0,1,0-1.6,0v7.091L7.457,4.779a1.805,1.805,0,1,0-1.29.937l4.168,5.737L3.592,9.261A1.807,1.807,0,1,0,3.1,10.778l6.744,2.191L3.1,15.161a1.805,1.805,0,1,0,.493,1.517l6.744-2.191L6.167,20.222a1.807,1.807,0,1,0,1.291.938l4.168-5.737v7.09a1.805,1.805,0,1,0,1.6,0v-7.09l4.168,5.737a1.8,1.8,0,1,0,1.29-.938L14.51,14.486l6.744,2.191A1.8,1.8,0,1,0,23.6,14.7" transform="matrix(0.951, -0.309, 0.309, 0.951, 34.952, 64.105)" fill="rgba(206,167,84,0.4)"/><path d="M46.941,16.843A11.74,11.74,0,0,0,35.112,8.75a11.739,11.739,0,0,0-22.7,0A11.739,11.739,0,0,0,5.392,30.344,11.738,11.738,0,0,0,23.759,43.688,11.738,11.738,0,0,0,42.127,30.344a11.742,11.742,0,0,0,4.814-13.5M40.9,28.431l-1.566,1.005.676,1.733A9.465,9.465,0,0,1,31.2,44.064h0a9.5,9.5,0,0,1-6-2.134l-1.44-1.179-1.44,1.179a9.5,9.5,0,0,1-6,2.134A9.465,9.465,0,0,1,7.51,31.169l.676-1.733L6.619,28.431A9.467,9.467,0,0,1,11.737,11c.179,0,.361.006.539.016l1.858.107.472-1.8a9.466,9.466,0,0,1,18.307,0l.473,1.8,1.857-.107c.179-.01.361-.016.54-.016A9.467,9.467,0,0,1,40.9,28.431" transform="translate(143.229 87.739) rotate(39)" fill="rgba(206,167,84,0.4)"/><path d="M17.175,10.7a1.313,1.313,0,0,0-1.347.334l-4.909-1.6,4.909-1.595a1.314,1.314,0,1,0-.358-1.1l-4.909,1.6L13.594,4.16a1.314,1.314,0,1,0-.939-.682L9.622,7.653V2.492a1.315,1.315,0,1,0-1.161,0V7.653L5.428,3.478a1.314,1.314,0,1,0-.939.682L7.523,8.336l-4.909-1.6a1.315,1.315,0,1,0-.359,1.1L7.163,9.439l-4.909,1.6a1.314,1.314,0,1,0,.359,1.1l4.909-1.6L4.488,14.718a1.315,1.315,0,1,0,.939.683l3.033-4.175v5.161a1.314,1.314,0,1,0,1.161,0V11.226L12.656,15.4a1.313,1.313,0,1,0,.939-.683l-3.033-4.175,4.909,1.6A1.314,1.314,0,1,0,17.175,10.7" transform="translate(148.978 109.27) rotate(39)" fill="rgba(206,167,84,0.4)"/></g></g><text transform="translate(122 39.5)" fill="#fff" font-size="40" font-family="NotoSerifJP-Bold, Noto Serif JP" font-weight="700"><tspan x="-60" y="46">参加費</tspan><tspan x="-40" y="100">無料</tspan></text></g></svg>