<svg xmlns="http://www.w3.org/2000/svg" width="225" height="267" viewBox="0 0 225 267"><g transform="translate(-131 -33)"><text transform="translate(239 156)" fill="#cc445a" font-size="48" font-family="NotoSerifJP-SemiBold, Noto Serif JP" font-weight="600"><tspan x="0" y="55">〜</tspan></text><g transform="translate(135 55)"><text transform="translate(-4 -1)" fill="#cc445a" font-size="24" font-family="NotoSerifJP-SemiBold, Noto Serif JP" font-weight="600"><tspan x="0" y="28">令和</tspan></text><text transform="translate(93 -1)" fill="#cc445a" font-size="24" font-family="NotoSerifJP-SemiBold, Noto Serif JP" font-weight="600"><tspan x="0" y="28">年</tspan></text><text transform="translate(56 -22)" fill="#cc445a" font-size="44" font-family="NotoSerifJP-SemiBold, Noto Serif JP" font-weight="600"><tspan x="0" y="51">4</tspan></text></g><g transform="translate(137 124)"><text transform="translate(42 -9)" fill="#cc445a" font-size="32" font-family="NotoSerifJP-SemiBold, Noto Serif JP" font-weight="600"><tspan x="0" y="37">月</tspan></text><text transform="translate(134 -9)" fill="#cc445a" font-size="32" font-family="NotoSerifJP-SemiBold, Noto Serif JP" font-weight="600"><tspan x="0" y="37">日</tspan></text><g transform="translate(194 19)"><circle cx="20.5" cy="20.5" r="20.5" transform="translate(-16 -23)" fill="#cc445a"/><text transform="translate(-7.5 -20)" fill="#fff" font-size="24" font-family="NotoSerifJP-SemiBold, Noto Serif JP" font-weight="600"><tspan x="0" y="28">火</tspan></text></g><text transform="translate(-6 -43)" fill="#cc445a" font-size="64" font-family="NotoSerifJP-SemiBold, Noto Serif JP" font-weight="600"><tspan x="0" y="74">3</tspan></text><text transform="translate(86 -43)" fill="#cc445a" font-size="64" font-family="NotoSerifJP-SemiBold, Noto Serif JP" font-weight="600"><tspan x="0" y="74">1</tspan></text></g><g transform="translate(137 251)"><text transform="translate(42 -9)" fill="#cc445a" font-size="32" font-family="NotoSerifJP-SemiBold, Noto Serif JP" font-weight="600"><tspan x="0" y="37">月</tspan></text><text transform="translate(134 -9)" fill="#cc445a" font-size="32" font-family="NotoSerifJP-SemiBold, Noto Serif JP" font-weight="600"><tspan x="0" y="37">日</tspan></text><g transform="translate(194 19)"><circle cx="20.5" cy="20.5" r="20.5" transform="translate(-16 -23)" fill="#cc445a"/><text transform="translate(-7.5 -20)" fill="#fff" font-size="24" font-family="NotoSerifJP-SemiBold, Noto Serif JP" font-weight="600"><tspan x="0" y="28">日</tspan></text></g><text transform="translate(-6 -43)" fill="#cc445a" font-size="64" font-family="NotoSerifJP-SemiBold, Noto Serif JP" font-weight="600"><tspan x="0" y="74">5</tspan></text><text transform="matrix(-1, 0, 0, 1, 122, -43)" fill="#cc445a" font-size="64" font-family="NotoSerifJP-SemiBold, Noto Serif JP" font-weight="600"><tspan x="0" y="74">8</tspan></text></g></g></svg>