<svg xmlns="http://www.w3.org/2000/svg" width="30" height="30" viewBox="0 0 30 30"><path d="M27.188,0H2.813A2.813,2.813,0,0,0,0,2.813V27.188A2.813,2.813,0,0,0,2.813,30H27.188A2.813,2.813,0,0,0,30,27.188V2.813A2.813,2.813,0,0,0,27.188,0ZM26.055,2.051a1.113,1.113,0,1,1-1.113,1.113A1.113,1.113,0,0,1,26.055,2.051Zm-4.131,0A1.113,1.113,0,1,1,20.81,3.164,1.113,1.113,0,0,1,21.924,2.051Zm-4.131,0A1.113,1.113,0,1,1,16.68,3.164,1.113,1.113,0,0,1,17.793,2.051Zm9.863,25.137a.469.469,0,0,1-.469.469H2.813a.469.469,0,0,1-.469-.469V6.094H27.656Z" fill="#fff"/><rect width="8.252" height="1.5" transform="translate(5.99 11.594)" fill="#fff"/><rect width="19.937" height="1.5" transform="translate(5.251 20.704)" fill="#fff"/><rect width="6.001" height="6.001" transform="translate(18.581 11.824)" fill="#fff"/><path d="M103.1,273.707h1.011V272H96v1.707h7.1Z" transform="translate(-90.163 -255.967)" fill="#fff"/></svg>