<svg xmlns="http://www.w3.org/2000/svg" width="30" height="30" viewBox="0 0 30 30"><path d="M25.606,4.393A15,15,0,1,0,30,15,14.957,14.957,0,0,0,25.606,4.393Zm-1.96,19.252A12.227,12.227,0,1,1,27.227,15,12.185,12.185,0,0,1,23.646,23.646Z" transform="translate(0 0)" fill="#fff"/><path d="M215.387,121.715a2.417,2.417,0,1,0-2.417-2.417A2.418,2.418,0,0,0,215.387,121.715Z" transform="translate(-200.637 -110.111)" fill="#fff"/><path d="M204.852,221.053h-.328a.609.609,0,0,1-.609-.608v-8.51a.319.319,0,0,0-.468-.282l-4.154,2.309c-1.208.6-.628,1.326-.178,1.307s1.79-.15,1.79-.15v5.327a.609.609,0,0,1-.609.608h-.645a.305.305,0,0,0-.3.3v1.329a.305.305,0,0,0,.3.3h5.2a.305.305,0,0,0,.3-.3v-1.329A.305.305,0,0,0,204.852,221.053Z" transform="translate(-187.134 -199.664)" fill="#fff"/></svg>