<svg id="outline_icon_pc" xmlns="http://www.w3.org/2000/svg" width="32" height="32" viewBox="0 0 32 32">
  <path id="パス_10" data-name="パス 10" d="M27.313,4.686A16,16,0,1,0,32,16,15.954,15.954,0,0,0,27.313,4.686ZM25.222,25.222A13.042,13.042,0,1,1,29.042,16,13,13,0,0,1,25.222,25.222Z" transform="translate(0 0)" fill="#cea754"/>
  <path id="パス_11" data-name="パス 11" d="M215.387,121.715a2.417,2.417,0,1,0-2.417-2.417A2.418,2.418,0,0,0,215.387,121.715Z" transform="translate(-199.656 -109.573)" fill="#cea754"/>
  <path id="パス_12" data-name="パス 12" d="M204.852,221.053h-.328a.609.609,0,0,1-.609-.608v-8.51a.319.319,0,0,0-.468-.282l-4.154,2.309c-1.208.6-.628,1.326-.178,1.307s1.79-.15,1.79-.15v5.327a.609.609,0,0,1-.609.608h-.645a.305.305,0,0,0-.3.3v1.329a.305.305,0,0,0,.3.3h5.2a.305.305,0,0,0,.3-.3v-1.329A.305.305,0,0,0,204.852,221.053Z" transform="translate(-186.158 -198.38)" fill="#cea754"/>
</svg>
