<svg xmlns="http://www.w3.org/2000/svg" width="24.274" height="32" viewBox="0 0 24.274 32">
  <g id="prize_icon_pc" transform="translate(-232.036 -1860.956)">
    <path id="パス_258" data-name="パス 258" d="M232.036,2042.308v7.769h10.3v-8.827h-9.244A1.058,1.058,0,0,0,232.036,2042.308Z" transform="translate(0 -169.026)" fill="#cea754"/>
    <path id="パス_259" data-name="パス 259" d="M464.836,2041.25h-9.244v8.827h10.3v-7.769A1.058,1.058,0,0,0,464.836,2041.25Z" transform="translate(-209.584 -169.026)" fill="#cea754"/>
    <path id="パス_260" data-name="パス 260" d="M232.036,2239.5a1.057,1.057,0,0,0,1.058,1.058h9.244v-8.827h-10.3Z" transform="translate(0 -347.601)" fill="#cea754"/>
    <path id="パス_261" data-name="パス 261" d="M455.592,2240.557h9.244a1.057,1.057,0,0,0,1.058-1.058v-7.769h-10.3Z" transform="translate(-209.584 -347.601)" fill="#cea754"/>
    <path id="パス_262" data-name="パス 262" d="M280.31,1867.437a1.512,1.512,0,0,0-.028-1.266l-2.179-4.43a1.388,1.388,0,0,0-1.009-.766,1.34,1.34,0,0,0-1.187.4l-4.916,5.076a1.336,1.336,0,0,1-1.938,0l-4.916-5.077a1.341,1.341,0,0,0-1.188-.4,1.389,1.389,0,0,0-1.009.766l-2.179,4.43a1.511,1.511,0,0,0-.028,1.266,1.4,1.4,0,0,0,.931.806l9.033,2.294a1.318,1.318,0,0,0,.65,0l9.033-2.294A1.4,1.4,0,0,0,280.31,1867.437Z" transform="translate(-25.848)" fill="#cea754"/>
  </g>
</svg>
