<svg xmlns="http://www.w3.org/2000/svg" width="22.757" height="30" viewBox="0 0 22.757 30"><g transform="translate(-232.036 -1860.956)"><path d="M232.036,2042.242v7.283h9.658v-8.275h-8.666A.992.992,0,0,0,232.036,2042.242Z" transform="translate(0 -169.73)" fill="#fff"/><path d="M464.258,2041.25h-8.666v8.275h9.658v-7.283A.992.992,0,0,0,464.258,2041.25Z" transform="translate(-210.457 -169.73)" fill="#fff"/><path d="M232.036,2239.013a.991.991,0,0,0,.992.992h8.666v-8.275h-9.658Z" transform="translate(0 -349.049)" fill="#fff"/><path d="M455.592,2240.005h8.666a.991.991,0,0,0,.992-.992v-7.283h-9.658Z" transform="translate(-210.457 -349.049)" fill="#fff"/><path d="M279.016,1867.031a1.418,1.418,0,0,0-.027-1.187l-2.042-4.153a1.3,1.3,0,0,0-.946-.719,1.257,1.257,0,0,0-1.113.374l-4.609,4.759a1.252,1.252,0,0,1-1.817,0l-4.609-4.76a1.258,1.258,0,0,0-1.114-.373,1.3,1.3,0,0,0-.946.719l-2.042,4.153a1.417,1.417,0,0,0-.027,1.187,1.309,1.309,0,0,0,.873.755l8.468,2.151a1.233,1.233,0,0,0,.61,0l8.468-2.151A1.308,1.308,0,0,0,279.016,1867.031Z" transform="translate(-25.956 0)" fill="#fff"/></g></svg>