<svg xmlns="http://www.w3.org/2000/svg" width="30.511" height="31" viewBox="0 0 30.511 31"><g transform="translate(-3.675 0.5)"><path d="M141.231,5.261A1.472,1.472,0,0,0,142.7,3.788V1.472a1.472,1.472,0,0,0-2.945,0V3.788A1.473,1.473,0,0,0,141.231,5.261Z" transform="translate(-127.639)" fill="#fff" stroke="rgba(0,0,0,0)" stroke-width="1"/><path d="M326.522,5.261a1.472,1.472,0,0,0,1.472-1.473V1.472a1.472,1.472,0,0,0-2.945,0V3.788A1.473,1.473,0,0,0,326.522,5.261Z" transform="translate(-302.073)" fill="#fff" stroke="rgba(0,0,0,0)" stroke-width="1"/><path d="M29.55,35.807H27.215V37.5a2.766,2.766,0,1,1-5.532,0v-1.69H16.358V37.5a2.766,2.766,0,1,1-5.532,0v-1.69H8.31a4.135,4.135,0,0,0-4.135,4.135V59.574A4.135,4.135,0,0,0,8.31,63.709H29.55a4.135,4.135,0,0,0,4.135-4.135V39.942A4.135,4.135,0,0,0,29.55,35.807Zm2.123,23.767A2.126,2.126,0,0,1,29.55,61.7H8.31a2.126,2.126,0,0,1-2.123-2.123V42.556H31.674Z" transform="translate(0 -33.709)" fill="#fff" stroke="rgba(0,0,0,0)" stroke-width="1"/><rect width="3.726" height="3.726" transform="translate(14.18 22.413)" fill="#fff" stroke="rgba(0,0,0,0)" stroke-width="1"/><rect width="3.726" height="3.726" transform="translate(14.18 16.638)" fill="#fff" stroke="rgba(0,0,0,0)" stroke-width="1"/><rect width="3.726" height="3.726" transform="translate(8.406 22.413)" fill="#fff" stroke="rgba(0,0,0,0)" stroke-width="1"/><rect width="3.726" height="3.726" transform="translate(8.406 16.638)" fill="#fff" stroke="rgba(0,0,0,0)" stroke-width="1"/><rect width="3.726" height="3.726" transform="translate(25.729 10.864)" fill="#fff" stroke="rgba(0,0,0,0)" stroke-width="1"/><rect width="3.726" height="3.726" transform="translate(19.955 10.864)" fill="#fff" stroke="rgba(0,0,0,0)" stroke-width="1"/><path d="M266.474,279.372l-1.108-.862-2.018,2.6-1.2-.958-.877,1.095,2.309,1.848Z" transform="translate(-242.034 -262.191)" fill="#fff" stroke="rgba(0,0,0,0)" stroke-width="1"/><rect width="3.726" height="3.726" transform="translate(25.729 16.638)" fill="#fff" stroke="rgba(0,0,0,0)" stroke-width="1"/><rect width="3.726" height="3.726" transform="translate(19.955 22.413)" fill="#fff" stroke="rgba(0,0,0,0)" stroke-width="1"/><rect width="3.726" height="3.726" transform="translate(14.18 10.864)" fill="#fff" stroke="rgba(0,0,0,0)" stroke-width="1"/></g></svg>