<svg xmlns="http://www.w3.org/2000/svg" width="34.934" height="31" viewBox="0 0 34.934 31"><g transform="translate(0.5 -28.655)"><path d="M24.738,56.906H2.249V40.062h8.658V31.4H24.738v2.217l2.249-2.159V29.155H10.907L2.249,37.813,0,40.062V59.155H26.987V45.914l-2.249,2.343Z" fill="#fff" stroke="rgba(0,0,0,0)" stroke-width="1"/><path d="M215.363,67.676l-3.394-3.394a.765.765,0,0,0-1.083,0L196.557,78.043a.765.765,0,0,0-.191.318l-1.733,5.694a.766.766,0,0,0,.955.955l5.878-1.789,13.9-14.464A.766.766,0,0,0,215.363,67.676Zm-17.5,15.245-1.116-1.22.774-2.542,1.927,1.037,1.037,1.927Zm15.344-15.787L201,79.419l-.776-.776,12.286-12.209.7.7Z" transform="translate(-181.731 -32.595)" fill="#fff" stroke="rgba(0,0,0,0)" stroke-width="1"/></g></svg>